<svg xmlns="http://www.w3.org/2000/svg" xmlns:xlink="http://www.w3.org/1999/xlink" viewBox="0 0 1549.17 231.69"><defs><style>.cls-1,.cls-2{opacity:0.85;}.cls-1{fill:url(#linear-gradient);}</style><linearGradient id="linear-gradient" x1="-2.63" y1="80.95" x2="167.19" y2="181.99" gradientUnits="userSpaceOnUse"><stop offset="0" stop-color="#10007f"/><stop offset="1" stop-color="#0084e9"/></linearGradient></defs><g id="Layer_2" data-name="Layer 2"><g id="Layer_1-2" data-name="Layer 1"><path class="cls-1" d="M52.61,192.93a14.81,14.81,0,0,1-12.83-22.22L94.22,76.44c5.7-9.88,20-9.88,25.9.42l51.77,89.67a6.78,6.78,0,0,0,2.48,2.48l15.42,8.91a6.78,6.78,0,0,0,9.26-9.27L119.87,31.52a14.8,14.8,0,0,0-25.65,0L2,191.22a14.81,14.81,0,0,0,12.83,22.22H170.39a6.78,6.78,0,0,0,3.39-12.65l-12.05-6.95a6.83,6.83,0,0,0-3.39-.91Z" transform="translate(0 -24.11)"/><g class="cls-2"><path d="M226.19,86.12h21.24V107.6h.49a34.29,34.29,0,0,1,11-17.45,28.16,28.16,0,0,1,18.55-6.47,38.86,38.86,0,0,1,5.07.3c1.5.21,2.66.39,3.48.55v20.63a19.52,19.52,0,0,0-4.34-.85,59.1,59.1,0,0,0-7-.37,27.56,27.56,0,0,0-14.34,3.66,24.4,24.4,0,0,0-9.52,10.56,37.48,37.48,0,0,0-3.36,16.54v78.37H226.19Z" transform="translate(0 -24.11)"/><path d="M310.51,255.49c-2.08-.2-3.81-.42-5.19-.67V237.49c.9.16,1.93.32,3.11.49a27.84,27.84,0,0,0,3.73.24q10.13,0,16.17-3.54t9.83-14.28l2.56-7.2L293.6,86.12h22.71l36.62,110.6-4.52-4.89h6.35l-4.52,4.89L387,86.12h22.34L359.77,221a82.72,82.72,0,0,1-10.14,19.77,34.73,34.73,0,0,1-13.55,11.36q-7.93,3.66-19.41,3.66A61.08,61.08,0,0,1,310.51,255.49Z" transform="translate(0 -24.11)"/><path d="M439.87,210.75A35.67,35.67,0,0,1,425,197.33a37.77,37.77,0,0,1-5.31-20.14v-.25q0-16.23,12.09-25.94t33.93-10.92l47-2.69v16.48l-44.56,2.69q-12.69.72-19.71,6.1a17.09,17.09,0,0,0-7,14.28v.25a17.43,17.43,0,0,0,6.9,14.52q6.88,5.37,18.37,5.37a38,38,0,0,0,18-4.21,33.2,33.2,0,0,0,12.7-11.53,29.91,29.91,0,0,0,4.7-16.48V127.38q0-11.59-7.26-18.25t-20.57-6.65q-12.21,0-19.72,5.31a22.26,22.26,0,0,0-9.34,13.85l-.24,1.1H424.49l.12-1.34a38,38,0,0,1,7.14-19,42.63,42.63,0,0,1,17-13.61q10.88-5.07,25.76-5.07t25.94,5.13a39.39,39.39,0,0,1,16.91,14.46q6,9.35,6,22v87.76H502.13V192.44h-.49a40.69,40.69,0,0,1-9.77,12.15A45.77,45.77,0,0,1,462,215.52,48.72,48.72,0,0,1,439.87,210.75Z" transform="translate(0 -24.11)"/><path d="M658.93,36.93h16.23V63.29h-5.61l-53.1,149.78H593.37Zm-28.2,107h78.12l7.33,18.68H623.4ZM670,63.29V36.93h10.62l65.43,176.14H723Z" transform="translate(0 -24.11)"/><path d="M764.18,86.12h21.24v18.07h.49A40.65,40.65,0,0,1,800.8,89.48q9.76-5.81,24.17-5.8,20.88,0,32.41,12.63t11.54,34.37v82.39H847.68V134.46q0-15.5-7.27-23.74t-21.91-8.24A33.39,33.39,0,0,0,801,106.93a30.11,30.11,0,0,0-11.53,12.52,41.22,41.22,0,0,0-4.09,18.92v74.7H764.18Z" transform="translate(0 -24.11)"/><path d="M912.16,210.75a35.61,35.61,0,0,1-14.83-13.42A37.77,37.77,0,0,1,892,177.19v-.25q0-16.23,12.08-25.94T938,140.08l47-2.69v16.48l-44.55,2.69q-12.71.72-19.72,6.1a17.09,17.09,0,0,0-7,14.28v.25a17.43,17.43,0,0,0,6.9,14.52q6.9,5.37,18.37,5.37a38,38,0,0,0,18-4.21,33.1,33.1,0,0,0,12.69-11.53,29.83,29.83,0,0,0,4.7-16.48V127.38q0-11.59-7.26-18.25t-20.57-6.65q-12.21,0-19.71,5.31a22.22,22.22,0,0,0-9.34,13.85l-.24,1.1H896.78l.12-1.34a38,38,0,0,1,7.14-19,42.63,42.63,0,0,1,17-13.61q10.86-5.07,25.76-5.07t25.94,5.13a39.36,39.36,0,0,1,16.9,14.46q6,9.35,6,22v87.76H974.41V192.44h-.48a40.85,40.85,0,0,1-9.77,12.15,45.77,45.77,0,0,1-29.91,10.93A48.71,48.71,0,0,1,912.16,210.75Z" transform="translate(0 -24.11)"/><path d="M1025,36.93h21.24V213.07H1025Z" transform="translate(0 -24.11)"/><path d="M1082.2,255.49c-2.08-.2-3.81-.42-5.19-.67V237.49c.9.16,1.93.32,3.11.49a27.73,27.73,0,0,0,3.73.24q10.13,0,16.17-3.54t9.83-14.28l2.56-7.2L1065.29,86.12H1088l36.62,110.6-4.52-4.89h6.35l-4.52,4.89,36.75-110.6H1181L1131.45,221a82.36,82.36,0,0,1-10.13,19.77,34.73,34.73,0,0,1-13.55,11.36q-7.93,3.66-19.41,3.66A61.08,61.08,0,0,1,1082.2,255.49Z" transform="translate(0 -24.11)"/><path d="M1214.13,207.21q-8.67-8.29-8.67-26.48v-77H1186.9V86.12h18.56V51.82h22v34.3h24.17V103.7h-24.17v76.9q0,10.14,4.4,13.74t12.94,3.6a34,34,0,0,0,3.72-.19l3.11-.3v17.21c-1.3.16-3,.35-5.06.55s-4.18.31-6.29.31Q1222.79,215.52,1214.13,207.21Z" transform="translate(0 -24.11)"/><path d="M1278.12,60.73a13.33,13.33,0,0,1,0-18.86,13.28,13.28,0,0,1,22.71,9.46,12.93,12.93,0,0,1-3.85,9.4,13.33,13.33,0,0,1-18.86,0Zm-1.22,25.39h21.24v127H1276.9Z" transform="translate(0 -24.11)"/><path d="M1349.74,207.4a53.68,53.68,0,0,1-20.44-23q-7.21-14.83-7.21-35v-.13q0-20,7.33-34.79a54.31,54.31,0,0,1,20.51-22.82q13.18-8.07,30.76-8.06,15.87,0,27.22,6.16a49.3,49.3,0,0,1,17.88,15.93,47.23,47.23,0,0,1,7.88,20.63l.12,1H1413l-.25-1a32.92,32.92,0,0,0-10.19-16.72q-7.87-7.2-21.91-7.2a32.79,32.79,0,0,0-19.29,5.8,38,38,0,0,0-12.94,16.35q-4.64,10.56-4.64,25v.12q0,14.78,4.7,25.27a37,37,0,0,0,13.06,16.11,33.87,33.87,0,0,0,19.35,5.62q13.07,0,21.18-6.66a31.74,31.74,0,0,0,10.8-17.27l.25-1H1434l-.12.86a47.39,47.39,0,0,1-8.85,21.79,50.83,50.83,0,0,1-18.43,15.38,56.52,56.52,0,0,1-25.7,5.68Q1363,215.52,1349.74,207.4Z" transform="translate(0 -24.11)"/><path d="M1474.1,210.75a40,40,0,0,1-24.78-33.2l-.12-1.1h21.24l.24,1.22a23.56,23.56,0,0,0,9.16,14.83q7.2,5.31,20.14,5.31a42.85,42.85,0,0,0,14.77-2.25,20.79,20.79,0,0,0,9.4-6.47,15.67,15.67,0,0,0,3.3-10V179q0-6.84-4.15-11t-15-6.84l-20.14-4.88q-17.94-4.27-26.73-12.88t-8.79-22.28V121a32.91,32.91,0,0,1,5.92-19.41A39.32,39.32,0,0,1,1475,88.44a58.43,58.43,0,0,1,24.23-4.76q13.92,0,24.23,4.94a40.81,40.81,0,0,1,16.23,13.43,37.22,37.22,0,0,1,6.66,19.1l.12,1.59h-20.26l-.13-.85A22.22,22.22,0,0,0,1518,107q-6.9-5.61-18.74-5.61a34.67,34.67,0,0,0-13.31,2.32,19.2,19.2,0,0,0-8.6,6.53,16.49,16.49,0,0,0-3,9.83v.12a14.75,14.75,0,0,0,4.63,11q4.65,4.53,15.14,7.08l20.14,4.89q19.29,4.63,27.1,12.75t7.81,21.67v.12a31.9,31.9,0,0,1-6.4,19.66,42.5,42.5,0,0,1-17.58,13.36,63.26,63.26,0,0,1-25.33,4.83Q1485,215.52,1474.1,210.75Z" transform="translate(0 -24.11)"/></g></g></g></svg>