<svg xmlns="http://www.w3.org/2000/svg" xmlns:xlink="http://www.w3.org/1999/xlink" viewBox="0 0 523.37 231.69"><defs><style>.cls-1,.cls-2{opacity:0.85;}.cls-1{fill:url(#linear-gradient);}</style><linearGradient id="linear-gradient" x1="-2.63" y1="80.95" x2="167.19" y2="181.99" gradientUnits="userSpaceOnUse"><stop offset="0" stop-color="#10007f"/><stop offset="1" stop-color="#0084e9"/></linearGradient></defs><g id="Layer_2" data-name="Layer 2"><g id="Layer_1-2" data-name="Layer 1"><path class="cls-1" d="M52.61,192.93a14.81,14.81,0,0,1-12.83-22.22L94.22,76.44c5.7-9.88,20-9.88,25.9.42l51.77,89.67a6.78,6.78,0,0,0,2.48,2.48l15.42,8.91a6.78,6.78,0,0,0,9.26-9.27L119.87,31.52a14.8,14.8,0,0,0-25.65,0L2,191.22a14.81,14.81,0,0,0,12.83,22.22H170.39a6.78,6.78,0,0,0,3.39-12.65l-12.05-6.95a6.83,6.83,0,0,0-3.39-.91Z" transform="translate(0 -24.11)"/><g class="cls-2"><path d="M226.19,86.12h21.24V107.6h.49a34.29,34.29,0,0,1,11-17.45,28.16,28.16,0,0,1,18.55-6.47,38.86,38.86,0,0,1,5.07.3c1.5.21,2.66.39,3.48.55v20.63a19.52,19.52,0,0,0-4.34-.85,59.1,59.1,0,0,0-7-.37,27.56,27.56,0,0,0-14.34,3.66,24.4,24.4,0,0,0-9.52,10.56,37.48,37.48,0,0,0-3.36,16.54v78.37H226.19Z" transform="translate(0 -24.11)"/><path d="M310.51,255.49c-2.08-.2-3.81-.42-5.19-.67V237.49c.9.16,1.93.32,3.11.49a27.73,27.73,0,0,0,3.73.24q10.13,0,16.17-3.54t9.83-14.28l2.56-7.2L293.6,86.12h22.71l36.62,110.6-4.52-4.89h6.35l-4.52,4.89L387,86.12h22.34L359.77,221a82.72,82.72,0,0,1-10.14,19.77,34.73,34.73,0,0,1-13.55,11.36q-7.93,3.66-19.41,3.66A61.08,61.08,0,0,1,310.51,255.49Z" transform="translate(0 -24.11)"/><path d="M439.87,210.75A35.61,35.61,0,0,1,425,197.33a37.77,37.77,0,0,1-5.31-20.14v-.25q0-16.23,12.09-25.94t33.93-10.92l47-2.69v16.48l-44.56,2.69q-12.69.72-19.71,6.1a17.09,17.09,0,0,0-7,14.28v.25a17.43,17.43,0,0,0,6.9,14.52q6.88,5.37,18.37,5.37a38,38,0,0,0,18-4.21,33.2,33.2,0,0,0,12.7-11.53,29.91,29.91,0,0,0,4.7-16.48V127.38q0-11.59-7.26-18.25t-20.57-6.65q-12.21,0-19.72,5.31a22.26,22.26,0,0,0-9.34,13.85l-.24,1.1H424.49l.12-1.34a38,38,0,0,1,7.14-19,42.63,42.63,0,0,1,17-13.61q10.88-5.07,25.76-5.07t25.94,5.13a39.39,39.39,0,0,1,16.91,14.46q6,9.35,6,22v87.76H502.13V192.44h-.49a40.69,40.69,0,0,1-9.77,12.15A45.77,45.77,0,0,1,462,215.52,48.72,48.72,0,0,1,439.87,210.75Z" transform="translate(0 -24.11)"/></g></g></g></svg>