<?xml version="1.0" encoding="utf-8"?>
<!-- Generator: Adobe Illustrator 24.1.0, SVG Export Plug-In . SVG Version: 6.00 Build 0)  -->
<svg version="1.1" id="Layer_1" xmlns="http://www.w3.org/2000/svg" xmlns:xlink="http://www.w3.org/1999/xlink" x="0px" y="0px"
	 viewBox="0 0 1549.2 231.7" style="enable-background:new 0 0 1549.2 231.7;" xml:space="preserve">
<style type="text/css">
	.st0{opacity:0.85;fill:#FFFFFF;enable-background:new    ;}
	.st1{opacity:0.85;}
	.st2{fill:#FFFFFF;}
</style>
<g id="Layer_2_1_">
	<g id="Layer_1-2">
		<path class="st0" d="M52.6,168.9c-8.2,0-14.8-6.6-14.8-14.8c0-2.6,0.7-5.2,2-7.4l54.4-94.3c5.7-9.9,20-9.9,25.9,0.4l51.8,89.7
			c0.6,1,1.5,1.9,2.5,2.5l15.4,8.9c3.2,1.9,7.4,0.8,9.3-2.5c1.2-2.1,1.2-4.7,0-6.8L119.9,7.5c-4.1-7.1-13.1-9.5-20.2-5.4
			c-2.3,1.3-4.1,3.2-5.4,5.4L2,167.2c-4.1,7.1-1.7,16.1,5.4,20.2c2.3,1.3,4.8,2,7.4,2h155.6c3.7,0,6.8-3,6.8-6.8
			c0-2.4-1.3-4.7-3.4-5.9l-12.1-6.9c-1-0.6-2.2-0.9-3.4-0.9L52.6,168.9z"/>
		<g class="st1">
			<path class="st2" d="M226.2,62.1h21.2v21.5h0.5c1.8-6.8,5.6-12.9,11-17.5c5.2-4.3,11.8-6.6,18.5-6.5c1.7,0,3.4,0.1,5.1,0.3
				c1.5,0.2,2.7,0.4,3.5,0.6v20.6c-1.4-0.4-2.9-0.7-4.3-0.8c-2.3-0.3-4.7-0.4-7-0.4c-5-0.1-10,1.2-14.3,3.7
				c-4.2,2.5-7.5,6.2-9.5,10.6c-2.4,5.2-3.5,10.8-3.4,16.5v78.4h-21.3L226.2,62.1L226.2,62.1z"/>
			<path class="st2" d="M310.5,231.5c-2.1-0.2-3.8-0.4-5.2-0.7v-17.3c0.9,0.2,1.9,0.3,3.1,0.5s2.5,0.2,3.7,0.2
				c6.8,0,12.1-1.2,16.2-3.5s7.3-7.1,9.8-14.3l2.6-7.2L293.6,62.1h22.7l36.6,110.6l-4.5-4.9h6.4l-4.5,4.9L387,62.1h22.3L359.7,197
				c-2.5,7-5.9,13.7-10.1,19.8c-3.5,4.9-8.1,8.8-13.5,11.4c-5.3,2.4-11.8,3.7-19.4,3.7C314.6,231.8,312.6,231.7,310.5,231.5z"/>
			<path class="st2" d="M439.9,186.7c-6.1-3-11.3-7.6-14.9-13.4c-3.6-6.1-5.5-13.1-5.3-20.1V153c0-10.8,4-19.5,12.1-25.9
				c8.1-6.4,19.4-10.1,33.9-10.9l47-2.7V130l-44.6,2.7c-8.5,0.5-15,2.5-19.7,6.1c-4.5,3.3-7.2,8.7-7,14.3v0.2
				c-0.2,5.7,2.4,11.1,6.9,14.5c4.6,3.6,10.7,5.4,18.4,5.4c6.3,0.1,12.4-1.3,18-4.2c5.2-2.7,9.5-6.6,12.7-11.5
				c3.1-4.9,4.8-10.6,4.7-16.5v-37.5c0-7.7-2.4-13.8-7.3-18.2c-4.8-4.4-11.7-6.7-20.6-6.7c-8.1,0-14.7,1.8-19.7,5.3
				c-4.8,3.2-8.1,8.2-9.3,13.8l-0.2,1.1h-20.5l0.1-1.3c0.6-6.9,3.1-13.4,7.1-19c4.4-5.9,10.3-10.6,17-13.6
				c7.3-3.4,15.8-5.1,25.8-5.1s18.6,1.7,25.9,5.1c6.9,3.1,12.8,8.1,16.9,14.5c4,6.2,6,13.6,6,22v87.7h-21.2v-20.6h-0.5
				c-2.4,4.6-5.8,8.8-9.8,12.1c-8.3,7.1-18.9,11-29.9,10.9C454.4,191.7,446.8,190,439.9,186.7z"/>
			<path class="st2" d="M658.9,12.9h16.2v26.4h-5.6l-53,149.8h-23.1L658.9,12.9z M630.7,119.9h78.1l7.3,18.7h-92.8L630.7,119.9z
				 M670,39.3V12.9h10.6L746,189.1h-23L670,39.3z"/>
			<path class="st2" d="M764.2,62.1h21.2v18.1h0.5c3.6-6.1,8.7-11.2,14.9-14.7c6.5-3.9,14.6-5.8,24.2-5.8c13.9,0,24.7,4.2,32.4,12.6
				s11.5,19.9,11.5,34.4v82.4h-21.2v-78.6c0-10.3-2.4-18.2-7.3-23.7s-12.2-8.2-21.9-8.2c-6.1-0.2-12.2,1.4-17.5,4.4
				c-5,3-9,7.3-11.5,12.5c-2.8,5.9-4.2,12.4-4.1,18.9v74.7h-21.2L764.2,62.1L764.2,62.1z"/>
			<path class="st2" d="M912.2,186.7c-6.1-3-11.3-7.6-14.8-13.4c-3.6-6.1-5.5-13.1-5.3-20.1V153c0-10.8,4-19.5,12.1-25.9
				c8.1-6.4,19.4-10.1,33.9-10.9l47-2.7V130l-44.5,2.7c-8.5,0.5-15,2.5-19.7,6.1c-4.5,3.3-7.2,8.7-7,14.3v0.2
				c-0.2,5.7,2.4,11.1,6.9,14.5c4.6,3.6,10.7,5.4,18.4,5.4c6.3,0.1,12.4-1.3,18-4.2c5.2-2.7,9.5-6.6,12.7-11.5
				c3.1-4.9,4.8-10.6,4.7-16.5v-37.5c0-7.7-2.4-13.8-7.3-18.2c-4.8-4.4-11.7-6.7-20.6-6.7c-8.1,0-14.7,1.8-19.7,5.3
				c-4.8,3.2-8.1,8.2-9.3,13.8l-0.2,1.1H897l0.1-1.3c0.6-6.9,3.1-13.4,7.1-19c4.4-5.9,10.3-10.6,17-13.6c7.2-3.4,15.8-5.1,25.8-5.1
				s18.6,1.7,25.9,5.1c6.9,3.1,12.8,8.1,16.9,14.5c4,6.2,6,13.6,6,22v87.7h-21.2v-20.6h-0.5c-2.4,4.6-5.8,8.8-9.8,12.1
				c-8.3,7.1-19,11-29.9,10.9C926.6,191.7,919,190,912.2,186.7z"/>
			<path class="st2" d="M1025,12.9h21.2v176.2H1025V12.9z"/>
			<path class="st2" d="M1082.2,231.5c-2.1-0.2-3.8-0.4-5.2-0.7v-17.3c0.9,0.2,1.9,0.3,3.1,0.5s2.5,0.2,3.7,0.2
				c6.8,0,12.1-1.2,16.2-3.5s7.3-7.1,9.8-14.3l2.6-7.2l-47.1-127.1h22.7l36.6,110.6l-4.5-4.9h6.3l-4.5,4.9l36.8-110.6h22.3
				L1131.4,197c-2.5,7-5.9,13.7-10.1,19.8c-3.5,4.9-8.1,8.8-13.6,11.4c-5.3,2.4-11.8,3.7-19.4,3.7
				C1086.3,231.8,1084.2,231.7,1082.2,231.5z"/>
			<path class="st2" d="M1214.1,183.2c-5.8-5.5-8.7-14.4-8.7-26.5v-77h-18.6V62.1h18.6V27.8h22v34.3h24.2v17.6h-24.2v76.9
				c0,6.8,1.5,11.3,4.4,13.7s7.2,3.6,12.9,3.6c1.2,0,2.5-0.1,3.7-0.2l3.1-0.3v17.2c-1.3,0.2-3,0.4-5.1,0.6s-4.2,0.3-6.3,0.3
				C1228.6,191.5,1219.9,188.7,1214.1,183.2z"/>
			<path class="st2" d="M1278.1,36.7c-5.2-5.2-5.2-13.6,0-18.9l0,0c5.2-5.2,13.6-5.2,18.8-0.1c2.5,2.5,4,6,3.9,9.5
				c0.1,3.5-1.3,6.9-3.8,9.4C1291.8,41.9,1283.3,41.9,1278.1,36.7L1278.1,36.7z M1276.9,62.1h21.2v127h-21.2V62.1z"/>
			<path class="st2" d="M1349.7,183.4c-8.9-5.5-16-13.5-20.4-23c-4.8-9.9-7.2-21.6-7.2-35v-0.1c0-13.3,2.4-24.9,7.3-34.8
				c4.5-9.4,11.6-17.3,20.5-22.8c8.8-5.4,19-8.1,30.8-8.1c10.6,0,19.7,2.1,27.2,6.2c7.2,3.8,13.3,9.2,17.9,15.9
				c4.2,6.2,6.9,13.2,7.9,20.6l0.1,1H1413l-0.2-1c-1.6-6.5-5.2-12.3-10.2-16.7c-5.2-4.8-12.5-7.2-21.9-7.2
				c-6.9-0.1-13.6,1.9-19.3,5.8c-5.8,4.1-10.2,9.8-12.9,16.3c-3.1,7-4.6,15.4-4.6,25v0.1c0,9.9,1.6,18.3,4.7,25.3
				c2.7,6.5,7.3,12.1,13.1,16.1c5.7,3.8,12.5,5.8,19.3,5.6c8.7,0,15.8-2.2,21.2-6.7c5.4-4.4,9.2-10.5,10.8-17.3l0.2-1h20.9l-0.1,0.9
				c-1.1,7.9-4.1,15.4-8.8,21.8c-4.8,6.5-11.1,11.8-18.4,15.4c-8,3.9-16.8,5.8-25.7,5.7C1369,191.5,1358.6,188.8,1349.7,183.4z"/>
			<path class="st2" d="M1474.1,186.7c-13.8-5.6-23.3-18.4-24.8-33.2l-0.1-1.1h21.2l0.2,1.2c1,5.9,4.3,11.2,9.2,14.8
				c4.8,3.5,11.5,5.3,20.1,5.3c5,0.1,10-0.6,14.8-2.2c3.7-1.2,6.9-3.5,9.4-6.5c2.2-2.9,3.4-6.4,3.3-10v-0.1c0-4.6-1.4-8.2-4.2-11
				s-7.8-5.1-15-6.8l-20.1-4.9c-12-2.8-20.9-7.1-26.7-12.9c-5.9-5.7-8.8-13.2-8.8-22.3v-0.1c-0.1-6.9,2-13.7,5.9-19.4
				c4.2-5.8,9.9-10.3,16.4-13.1c7.6-3.3,15.9-4.9,24.2-4.8c9.3,0,17.4,1.6,24.2,4.9c6.5,3,12.1,7.6,16.2,13.4
				c3.9,5.6,6.2,12.2,6.7,19.1l0.1,1.6H1526l-0.1-0.8c-0.6-5.8-3.5-11.2-8.1-14.9c-4.6-3.7-10.8-5.6-18.7-5.6
				c-4.5-0.1-9.1,0.7-13.3,2.3c-3.4,1.3-6.4,3.6-8.6,6.5c-2,2.9-3.1,6.3-3,9.8V96c-0.1,4.2,1.6,8.1,4.6,11c3.1,3,8.1,5.4,15.1,7.1
				l20.1,4.9c12.9,3.1,21.9,7.3,27.1,12.8c5.2,5.4,7.8,12.6,7.8,21.7v0.1c0.1,7.1-2.1,14-6.4,19.7c-4.6,5.9-10.6,10.5-17.6,13.4
				c-8,3.3-16.6,5-25.3,4.8C1490,191.5,1481.4,189.9,1474.1,186.7z"/>
		</g>
	</g>
</g>
</svg>
